# xmcd CD database file
#
# Track frame offsets:
#	150
#	20392
#	41924
#	75569
#	94713
#	121284
#	142195
#	163673
#	183631
#	207840
#
# Disc length: 2998 seconds
#
# Revision: 0
# Processed by: cddbd v1.5.1PL2 Copyright (c) Steve Scherf et al.
# Submitted via: CDex 1.51
#
DISCID=870bb40a
DTITLE=Vlatko Stefanovski and Miroslav Tadic - Krushevo
DYEAR=1999
DGENRE=Jazz
TTITLE0=Gajdarsko Oro
TTITLE1=Jano Mori
TTITLE2=Jovano Jovanke
TTITLE3=More Cico Rece da Me Zeni
TTITLE4=Peoseta Se Jovka Kumanovka
TTITLE5=Ne Prela Jora Ni Diala
TTITLE6=Daline Vino Crevno
TTITLE7=Izlezi, Vido
TTITLE8=Ajda da Li Znaes, Pametis Milice
TTITLE9=Oj. Ovcarce
EXTD=YEAR: 1999
EXTT0=
EXTT1=
EXTT2=
EXTT3=
EXTT4=
EXTT5=
EXTT6=
EXTT7=
EXTT8=
EXTT9=
PLAYORDER=
